<mxfile host="65bd71144e">
    <diagram name="Page-1" id="9f46799a-70d6-7492-0946-bef42562c5a5">
        <mxGraphModel dx="1435" dy="1313" grid="1" gridSize="10" guides="1" tooltips="1" connect="1" arrows="1" fold="1" page="1" pageScale="1" pageWidth="1100" pageHeight="850" background="none" math="0" shadow="0">
            <root>
                <mxCell id="0"/>
                <mxCell id="1" parent="0"/>
                <mxCell id="Z24ObllgmWdgaAB6FL8y-1" value="Game" style="swimlane;fontStyle=1;align=center;verticalAlign=top;childLayout=stackLayout;horizontal=1;startSize=26;horizontalStack=0;resizeParent=1;resizeParentMax=0;resizeLast=0;collapsible=1;marginBottom=0;" parent="1" vertex="1">
                    <mxGeometry x="-720" y="-480" width="300" height="164" as="geometry">
                        <mxRectangle x="-130" y="293" width="100" height="26" as="alternateBounds"/>
                    </mxGeometry>
                </mxCell>
                <mxCell id="Z24ObllgmWdgaAB6FL8y-2" value="+ players: [] Player&#10;" style="text;strokeColor=none;fillColor=none;align=left;verticalAlign=top;spacingLeft=4;spacingRight=4;overflow=hidden;rotatable=0;points=[[0,0.5],[1,0.5]];portConstraint=eastwest;" parent="Z24ObllgmWdgaAB6FL8y-1" vertex="1">
                    <mxGeometry y="26" width="300" height="26" as="geometry"/>
                </mxCell>
                <mxCell id="Z24ObllgmWdgaAB6FL8y-6" value="" style="line;strokeWidth=1;fillColor=none;align=left;verticalAlign=middle;spacingTop=-1;spacingLeft=3;spacingRight=3;rotatable=0;labelPosition=right;points=[];portConstraint=eastwest;" parent="Z24ObllgmWdgaAB6FL8y-1" vertex="1">
                    <mxGeometry y="52" width="300" height="8" as="geometry"/>
                </mxCell>
                <mxCell id="Z24ObllgmWdgaAB6FL8y-7" value="+ start(players_num, width, height, AI_number = 1)" style="text;strokeColor=none;fillColor=none;align=left;verticalAlign=top;spacingLeft=4;spacingRight=4;overflow=hidden;rotatable=0;points=[[0,0.5],[1,0.5]];portConstraint=eastwest;" parent="Z24ObllgmWdgaAB6FL8y-1" vertex="1">
                    <mxGeometry y="60" width="300" height="26" as="geometry"/>
                </mxCell>
                <mxCell id="Z24ObllgmWdgaAB6FL8y-9" value="+ isGameFinished()" style="text;strokeColor=none;fillColor=none;align=left;verticalAlign=top;spacingLeft=4;spacingRight=4;overflow=hidden;rotatable=0;points=[[0,0.5],[1,0.5]];portConstraint=eastwest;" parent="Z24ObllgmWdgaAB6FL8y-1" vertex="1">
                    <mxGeometry y="86" width="300" height="26" as="geometry"/>
                </mxCell>
                <mxCell id="Z24ObllgmWdgaAB6FL8y-19" value="+ getPlayers() [] Player" style="text;strokeColor=none;fillColor=none;align=left;verticalAlign=top;spacingLeft=4;spacingRight=4;overflow=hidden;rotatable=0;points=[[0,0.5],[1,0.5]];portConstraint=eastwest;" parent="Z24ObllgmWdgaAB6FL8y-1" vertex="1">
                    <mxGeometry y="112" width="300" height="26" as="geometry"/>
                </mxCell>
                <mxCell id="Z24ObllgmWdgaAB6FL8y-8" value="+ finish()" style="text;strokeColor=none;fillColor=none;align=left;verticalAlign=top;spacingLeft=4;spacingRight=4;overflow=hidden;rotatable=0;points=[[0,0.5],[1,0.5]];portConstraint=eastwest;" parent="Z24ObllgmWdgaAB6FL8y-1" vertex="1">
                    <mxGeometry y="138" width="300" height="26" as="geometry"/>
                </mxCell>
                <mxCell id="Z24ObllgmWdgaAB6FL8y-10" value="Player" style="swimlane;fontStyle=1;align=center;verticalAlign=top;childLayout=stackLayout;horizontal=1;startSize=26;horizontalStack=0;resizeParent=1;resizeParentMax=0;resizeLast=0;collapsible=1;marginBottom=0;" parent="1" vertex="1">
                    <mxGeometry x="-300" y="-480" width="160" height="294" as="geometry">
                        <mxRectangle x="-130" y="293" width="100" height="26" as="alternateBounds"/>
                    </mxGeometry>
                </mxCell>
                <mxCell id="Z24ObllgmWdgaAB6FL8y-11" value="+ alive: Boolean&#10;" style="text;strokeColor=none;fillColor=none;align=left;verticalAlign=top;spacingLeft=4;spacingRight=4;overflow=hidden;rotatable=0;points=[[0,0.5],[1,0.5]];portConstraint=eastwest;" parent="Z24ObllgmWdgaAB6FL8y-10" vertex="1">
                    <mxGeometry y="26" width="160" height="26" as="geometry"/>
                </mxCell>
                <mxCell id="Z24ObllgmWdgaAB6FL8y-12" value="+ field: Field" style="text;strokeColor=none;fillColor=none;align=left;verticalAlign=top;spacingLeft=4;spacingRight=4;overflow=hidden;rotatable=0;points=[[0,0.5],[1,0.5]];portConstraint=eastwest;" parent="Z24ObllgmWdgaAB6FL8y-10" vertex="1">
                    <mxGeometry y="52" width="160" height="26" as="geometry"/>
                </mxCell>
                <mxCell id="Z24ObllgmWdgaAB6FL8y-13" value="+ game: Game" style="text;strokeColor=none;fillColor=none;align=left;verticalAlign=top;spacingLeft=4;spacingRight=4;overflow=hidden;rotatable=0;points=[[0,0.5],[1,0.5]];portConstraint=eastwest;" parent="Z24ObllgmWdgaAB6FL8y-10" vertex="1">
                    <mxGeometry y="78" width="160" height="26" as="geometry"/>
                </mxCell>
                <mxCell id="Z24ObllgmWdgaAB6FL8y-15" value="" style="line;strokeWidth=1;fillColor=none;align=left;verticalAlign=middle;spacingTop=-1;spacingLeft=3;spacingRight=3;rotatable=0;labelPosition=right;points=[];portConstraint=eastwest;" parent="Z24ObllgmWdgaAB6FL8y-10" vertex="1">
                    <mxGeometry y="104" width="160" height="8" as="geometry"/>
                </mxCell>
                <mxCell id="Z24ObllgmWdgaAB6FL8y-16" value="+ turn():Boolean" style="text;strokeColor=none;fillColor=none;align=left;verticalAlign=top;spacingLeft=4;spacingRight=4;overflow=hidden;rotatable=0;points=[[0,0.5],[1,0.5]];portConstraint=eastwest;" parent="Z24ObllgmWdgaAB6FL8y-10" vertex="1">
                    <mxGeometry y="112" width="160" height="26" as="geometry"/>
                </mxCell>
                <mxCell id="Z24ObllgmWdgaAB6FL8y-17" value="+ isAlive(): Boolean" style="text;strokeColor=none;fillColor=none;align=left;verticalAlign=top;spacingLeft=4;spacingRight=4;overflow=hidden;rotatable=0;points=[[0,0.5],[1,0.5]];portConstraint=eastwest;" parent="Z24ObllgmWdgaAB6FL8y-10" vertex="1">
                    <mxGeometry y="138" width="160" height="26" as="geometry"/>
                </mxCell>
                <mxCell id="Z24ObllgmWdgaAB6FL8y-18" value="+ selectTarget(): Player" style="text;strokeColor=none;fillColor=none;align=left;verticalAlign=top;spacingLeft=4;spacingRight=4;overflow=hidden;rotatable=0;points=[[0,0.5],[1,0.5]];portConstraint=eastwest;" parent="Z24ObllgmWdgaAB6FL8y-10" vertex="1">
                    <mxGeometry y="164" width="160" height="26" as="geometry"/>
                </mxCell>
                <mxCell id="Z24ObllgmWdgaAB6FL8y-21" value="+ hit(player, x,y): Boolean" style="text;strokeColor=none;fillColor=none;align=left;verticalAlign=top;spacingLeft=4;spacingRight=4;overflow=hidden;rotatable=0;points=[[0,0.5],[1,0.5]];portConstraint=eastwest;" parent="Z24ObllgmWdgaAB6FL8y-10" vertex="1">
                    <mxGeometry y="190" width="160" height="26" as="geometry"/>
                </mxCell>
                <mxCell id="Z24ObllgmWdgaAB6FL8y-20" value="+ printField():" style="text;strokeColor=none;fillColor=none;align=left;verticalAlign=top;spacingLeft=4;spacingRight=4;overflow=hidden;rotatable=0;points=[[0,0.5],[1,0.5]];portConstraint=eastwest;" parent="Z24ObllgmWdgaAB6FL8y-10" vertex="1">
                    <mxGeometry y="216" width="160" height="26" as="geometry"/>
                </mxCell>
                <mxCell id="Z24ObllgmWdgaAB6FL8y-35" value="+ getHit(x,y): Boolean" style="text;strokeColor=none;fillColor=none;align=left;verticalAlign=top;spacingLeft=4;spacingRight=4;overflow=hidden;rotatable=0;points=[[0,0.5],[1,0.5]];portConstraint=eastwest;" parent="Z24ObllgmWdgaAB6FL8y-10" vertex="1">
                    <mxGeometry y="242" width="160" height="26" as="geometry"/>
                </mxCell>
                <mxCell id="Z24ObllgmWdgaAB6FL8y-34" value="+ shipsAlive(): int" style="text;strokeColor=none;fillColor=none;align=left;verticalAlign=top;spacingLeft=4;spacingRight=4;overflow=hidden;rotatable=0;points=[[0,0.5],[1,0.5]];portConstraint=eastwest;" parent="Z24ObllgmWdgaAB6FL8y-10" vertex="1">
                    <mxGeometry y="268" width="160" height="26" as="geometry"/>
                </mxCell>
                <mxCell id="Z24ObllgmWdgaAB6FL8y-22" value="" style="endArrow=none;html=1;edgeStyle=orthogonalEdgeStyle;entryX=0;entryY=0.5;entryDx=0;entryDy=0;" parent="1" target="Z24ObllgmWdgaAB6FL8y-11" edge="1">
                    <mxGeometry relative="1" as="geometry">
                        <mxPoint x="-420" y="-441" as="sourcePoint"/>
                        <mxPoint x="-310" y="-440" as="targetPoint"/>
                    </mxGeometry>
                </mxCell>
                <mxCell id="Z24ObllgmWdgaAB6FL8y-23" value="1" style="edgeLabel;resizable=0;html=1;align=left;verticalAlign=bottom;" parent="Z24ObllgmWdgaAB6FL8y-22" connectable="0" vertex="1">
                    <mxGeometry x="-1" relative="1" as="geometry">
                        <mxPoint x="10" as="offset"/>
                    </mxGeometry>
                </mxCell>
                <mxCell id="Z24ObllgmWdgaAB6FL8y-24" value="*" style="edgeLabel;resizable=0;html=1;align=right;verticalAlign=bottom;" parent="Z24ObllgmWdgaAB6FL8y-22" connectable="0" vertex="1">
                    <mxGeometry x="1" relative="1" as="geometry">
                        <mxPoint x="-10" as="offset"/>
                    </mxGeometry>
                </mxCell>
                <mxCell id="Z24ObllgmWdgaAB6FL8y-25" value="Field" style="swimlane;fontStyle=1;align=center;verticalAlign=top;childLayout=stackLayout;horizontal=1;startSize=26;horizontalStack=0;resizeParent=1;resizeParentMax=0;resizeLast=0;collapsible=1;marginBottom=0;" parent="1" vertex="1">
                    <mxGeometry x="-50" y="-480" width="160" height="138" as="geometry">
                        <mxRectangle x="-130" y="293" width="100" height="26" as="alternateBounds"/>
                    </mxGeometry>
                </mxCell>
                <mxCell id="Z24ObllgmWdgaAB6FL8y-26" value="+ cells: {}[] Cell&#10;" style="text;strokeColor=none;fillColor=none;align=left;verticalAlign=top;spacingLeft=4;spacingRight=4;overflow=hidden;rotatable=0;points=[[0,0.5],[1,0.5]];portConstraint=eastwest;" parent="Z24ObllgmWdgaAB6FL8y-25" vertex="1">
                    <mxGeometry y="26" width="160" height="26" as="geometry"/>
                </mxCell>
                <mxCell id="Z24ObllgmWdgaAB6FL8y-33" value="+ ships: [] Ship&#10;" style="text;strokeColor=none;fillColor=none;align=left;verticalAlign=top;spacingLeft=4;spacingRight=4;overflow=hidden;rotatable=0;points=[[0,0.5],[1,0.5]];portConstraint=eastwest;" parent="Z24ObllgmWdgaAB6FL8y-25" vertex="1">
                    <mxGeometry y="52" width="160" height="26" as="geometry"/>
                </mxCell>
                <mxCell id="Z24ObllgmWdgaAB6FL8y-30" value="" style="line;strokeWidth=1;fillColor=none;align=left;verticalAlign=middle;spacingTop=-1;spacingLeft=3;spacingRight=3;rotatable=0;labelPosition=right;points=[];portConstraint=eastwest;" parent="Z24ObllgmWdgaAB6FL8y-25" vertex="1">
                    <mxGeometry y="78" width="160" height="8" as="geometry"/>
                </mxCell>
                <mxCell id="Z24ObllgmWdgaAB6FL8y-31" value="+ placeShips()" style="text;strokeColor=none;fillColor=none;align=left;verticalAlign=top;spacingLeft=4;spacingRight=4;overflow=hidden;rotatable=0;points=[[0,0.5],[1,0.5]];portConstraint=eastwest;" parent="Z24ObllgmWdgaAB6FL8y-25" vertex="1">
                    <mxGeometry y="86" width="160" height="26" as="geometry"/>
                </mxCell>
                <mxCell id="Z24ObllgmWdgaAB6FL8y-32" value="+ shipsAlive(): int" style="text;strokeColor=none;fillColor=none;align=left;verticalAlign=top;spacingLeft=4;spacingRight=4;overflow=hidden;rotatable=0;points=[[0,0.5],[1,0.5]];portConstraint=eastwest;" parent="Z24ObllgmWdgaAB6FL8y-25" vertex="1">
                    <mxGeometry y="112" width="160" height="26" as="geometry"/>
                </mxCell>
                <mxCell id="Z24ObllgmWdgaAB6FL8y-36" style="edgeStyle=elbowEdgeStyle;html=1;labelBackgroundColor=none;startFill=0;startSize=8;endArrow=diamondThin;endFill=0;endSize=16;fontFamily=Verdana;fontSize=12;elbow=vertical;" parent="1" edge="1">
                    <mxGeometry relative="1" as="geometry">
                        <mxPoint x="-140" y="-411.5" as="sourcePoint"/>
                        <mxPoint x="-50" y="-411" as="targetPoint"/>
                        <Array as="points">
                            <mxPoint x="-110" y="-411.5"/>
                        </Array>
                    </mxGeometry>
                </mxCell>
                <mxCell id="Z24ObllgmWdgaAB6FL8y-37" value="AIPlayer" style="swimlane;fontStyle=1;align=center;verticalAlign=top;childLayout=stackLayout;horizontal=1;startSize=26;horizontalStack=0;resizeParent=1;resizeParentMax=0;resizeLast=0;collapsible=1;marginBottom=0;" parent="1" vertex="1">
                    <mxGeometry x="-310" y="-90" width="160" height="60" as="geometry">
                        <mxRectangle x="-130" y="293" width="100" height="26" as="alternateBounds"/>
                    </mxGeometry>
                </mxCell>
                <mxCell id="Z24ObllgmWdgaAB6FL8y-42" value="" style="line;strokeWidth=1;fillColor=none;align=left;verticalAlign=middle;spacingTop=-1;spacingLeft=3;spacingRight=3;rotatable=0;labelPosition=right;points=[];portConstraint=eastwest;" parent="Z24ObllgmWdgaAB6FL8y-37" vertex="1">
                    <mxGeometry y="26" width="160" height="8" as="geometry"/>
                </mxCell>
                <mxCell id="Z24ObllgmWdgaAB6FL8y-47" value="+ turn(): " style="text;strokeColor=none;fillColor=none;align=left;verticalAlign=top;spacingLeft=4;spacingRight=4;overflow=hidden;rotatable=0;points=[[0,0.5],[1,0.5]];portConstraint=eastwest;" parent="Z24ObllgmWdgaAB6FL8y-37" vertex="1">
                    <mxGeometry y="34" width="160" height="26" as="geometry"/>
                </mxCell>
                <mxCell id="Z24ObllgmWdgaAB6FL8y-45" style="edgeStyle=orthogonalEdgeStyle;html=1;labelBackgroundColor=none;startFill=0;startSize=8;endArrow=block;endFill=0;endSize=16;fontFamily=Verdana;fontSize=12;" parent="1" edge="1">
                    <mxGeometry relative="1" as="geometry">
                        <Array as="points">
                            <mxPoint x="-230.5" y="-88"/>
                        </Array>
                        <mxPoint x="-230.5" y="-108" as="sourcePoint"/>
                        <mxPoint x="-230.5" y="-188" as="targetPoint"/>
                    </mxGeometry>
                </mxCell>
                <mxCell id="Z24ObllgmWdgaAB6FL8y-48" value="Cell" style="swimlane;fontStyle=1;align=center;verticalAlign=top;childLayout=stackLayout;horizontal=1;startSize=26;horizontalStack=0;resizeParent=1;resizeParentMax=0;resizeLast=0;collapsible=1;marginBottom=0;" parent="1" vertex="1">
                    <mxGeometry x="220" y="-480" width="200" height="138" as="geometry">
                        <mxRectangle x="-130" y="293" width="100" height="26" as="alternateBounds"/>
                    </mxGeometry>
                </mxCell>
                <mxCell id="Z24ObllgmWdgaAB6FL8y-49" value="+ closed: Boolean&#10;" style="text;strokeColor=none;fillColor=none;align=left;verticalAlign=top;spacingLeft=4;spacingRight=4;overflow=hidden;rotatable=0;points=[[0,0.5],[1,0.5]];portConstraint=eastwest;" parent="Z24ObllgmWdgaAB6FL8y-48" vertex="1">
                    <mxGeometry y="26" width="200" height="26" as="geometry"/>
                </mxCell>
                <mxCell id="Z24ObllgmWdgaAB6FL8y-50" value="+ ship: Ship&#10;" style="text;strokeColor=none;fillColor=none;align=left;verticalAlign=top;spacingLeft=4;spacingRight=4;overflow=hidden;rotatable=0;points=[[0,0.5],[1,0.5]];portConstraint=eastwest;" parent="Z24ObllgmWdgaAB6FL8y-48" vertex="1">
                    <mxGeometry y="52" width="200" height="26" as="geometry"/>
                </mxCell>
                <mxCell id="Z24ObllgmWdgaAB6FL8y-51" value="" style="line;strokeWidth=1;fillColor=none;align=left;verticalAlign=middle;spacingTop=-1;spacingLeft=3;spacingRight=3;rotatable=0;labelPosition=right;points=[];portConstraint=eastwest;" parent="Z24ObllgmWdgaAB6FL8y-48" vertex="1">
                    <mxGeometry y="78" width="200" height="8" as="geometry"/>
                </mxCell>
                <mxCell id="3" value="+ setShip(ship)" style="text;strokeColor=none;fillColor=none;align=left;verticalAlign=top;spacingLeft=4;spacingRight=4;overflow=hidden;rotatable=0;points=[[0,0.5],[1,0.5]];portConstraint=eastwest;" parent="Z24ObllgmWdgaAB6FL8y-48" vertex="1">
                    <mxGeometry y="86" width="200" height="26" as="geometry"/>
                </mxCell>
                <mxCell id="Z24ObllgmWdgaAB6FL8y-52" value="+ hit(): Bool" style="text;strokeColor=none;fillColor=none;align=left;verticalAlign=top;spacingLeft=4;spacingRight=4;overflow=hidden;rotatable=0;points=[[0,0.5],[1,0.5]];portConstraint=eastwest;" parent="Z24ObllgmWdgaAB6FL8y-48" vertex="1">
                    <mxGeometry y="112" width="200" height="26" as="geometry"/>
                </mxCell>
                <mxCell id="Z24ObllgmWdgaAB6FL8y-54" value="Ship" style="swimlane;fontStyle=1;align=center;verticalAlign=top;childLayout=stackLayout;horizontal=1;startSize=26;horizontalStack=0;resizeParent=1;resizeParentMax=0;resizeLast=0;collapsible=1;marginBottom=0;" parent="1" vertex="1">
                    <mxGeometry x="-50" y="-300" width="160" height="138" as="geometry">
                        <mxRectangle x="-130" y="293" width="100" height="26" as="alternateBounds"/>
                    </mxGeometry>
                </mxCell>
                <mxCell id="Z24ObllgmWdgaAB6FL8y-55" value="+ cells: [] Cell&#10;" style="text;strokeColor=none;fillColor=none;align=left;verticalAlign=top;spacingLeft=4;spacingRight=4;overflow=hidden;rotatable=0;points=[[0,0.5],[1,0.5]];portConstraint=eastwest;" parent="Z24ObllgmWdgaAB6FL8y-54" vertex="1">
                    <mxGeometry y="26" width="160" height="26" as="geometry"/>
                </mxCell>
                <mxCell id="Z24ObllgmWdgaAB6FL8y-57" value="" style="line;strokeWidth=1;fillColor=none;align=left;verticalAlign=middle;spacingTop=-1;spacingLeft=3;spacingRight=3;rotatable=0;labelPosition=right;points=[];portConstraint=eastwest;" parent="Z24ObllgmWdgaAB6FL8y-54" vertex="1">
                    <mxGeometry y="52" width="160" height="8" as="geometry"/>
                </mxCell>
                <mxCell id="4" value="+ setCells(cells)" style="text;strokeColor=none;fillColor=none;align=left;verticalAlign=top;spacingLeft=4;spacingRight=4;overflow=hidden;rotatable=0;points=[[0,0.5],[1,0.5]];portConstraint=eastwest;" parent="Z24ObllgmWdgaAB6FL8y-54" vertex="1">
                    <mxGeometry y="60" width="160" height="26" as="geometry"/>
                </mxCell>
                <mxCell id="Z24ObllgmWdgaAB6FL8y-58" value="+ isAlive()" style="text;strokeColor=none;fillColor=none;align=left;verticalAlign=top;spacingLeft=4;spacingRight=4;overflow=hidden;rotatable=0;points=[[0,0.5],[1,0.5]];portConstraint=eastwest;" parent="Z24ObllgmWdgaAB6FL8y-54" vertex="1">
                    <mxGeometry y="86" width="160" height="26" as="geometry"/>
                </mxCell>
                <mxCell id="Z24ObllgmWdgaAB6FL8y-70" value="+ getSize()" style="text;strokeColor=none;fillColor=none;align=left;verticalAlign=top;spacingLeft=4;spacingRight=4;overflow=hidden;rotatable=0;points=[[0,0.5],[1,0.5]];portConstraint=eastwest;" parent="Z24ObllgmWdgaAB6FL8y-54" vertex="1">
                    <mxGeometry y="112" width="160" height="26" as="geometry"/>
                </mxCell>
                <mxCell id="Z24ObllgmWdgaAB6FL8y-63" value="" style="endArrow=none;html=1;edgeStyle=orthogonalEdgeStyle;" parent="1" edge="1">
                    <mxGeometry relative="1" as="geometry">
                        <mxPoint x="110" y="-440" as="sourcePoint"/>
                        <mxPoint x="220" y="-440" as="targetPoint"/>
                    </mxGeometry>
                </mxCell>
                <mxCell id="Z24ObllgmWdgaAB6FL8y-64" value="1" style="edgeLabel;resizable=0;html=1;align=left;verticalAlign=bottom;" parent="Z24ObllgmWdgaAB6FL8y-63" connectable="0" vertex="1">
                    <mxGeometry x="-1" relative="1" as="geometry">
                        <mxPoint x="10" as="offset"/>
                    </mxGeometry>
                </mxCell>
                <mxCell id="Z24ObllgmWdgaAB6FL8y-65" value="*" style="edgeLabel;resizable=0;html=1;align=right;verticalAlign=bottom;" parent="Z24ObllgmWdgaAB6FL8y-63" connectable="0" vertex="1">
                    <mxGeometry x="1" relative="1" as="geometry">
                        <mxPoint x="-10" as="offset"/>
                    </mxGeometry>
                </mxCell>
                <mxCell id="Z24ObllgmWdgaAB6FL8y-66" value="" style="endArrow=none;html=1;edgeStyle=orthogonalEdgeStyle;entryX=0.613;entryY=0.014;entryDx=0;entryDy=0;entryPerimeter=0;" parent="1" target="Z24ObllgmWdgaAB6FL8y-54" edge="1">
                    <mxGeometry relative="1" as="geometry">
                        <mxPoint x="110" y="-420" as="sourcePoint"/>
                        <mxPoint x="320" y="-233" as="targetPoint"/>
                        <Array as="points">
                            <mxPoint x="160" y="-420"/>
                            <mxPoint x="160" y="-320"/>
                            <mxPoint x="48" y="-320"/>
                        </Array>
                    </mxGeometry>
                </mxCell>
                <mxCell id="Z24ObllgmWdgaAB6FL8y-67" value="1" style="edgeLabel;resizable=0;html=1;align=left;verticalAlign=bottom;" parent="Z24ObllgmWdgaAB6FL8y-66" connectable="0" vertex="1">
                    <mxGeometry x="-1" relative="1" as="geometry">
                        <mxPoint x="10" as="offset"/>
                    </mxGeometry>
                </mxCell>
                <mxCell id="Z24ObllgmWdgaAB6FL8y-68" value="*" style="edgeLabel;resizable=0;html=1;align=right;verticalAlign=bottom;" parent="Z24ObllgmWdgaAB6FL8y-66" connectable="0" vertex="1">
                    <mxGeometry x="1" relative="1" as="geometry">
                        <mxPoint x="-10" as="offset"/>
                    </mxGeometry>
                </mxCell>
                <mxCell id="Z24ObllgmWdgaAB6FL8y-69" style="edgeStyle=orthogonalEdgeStyle;html=1;labelBackgroundColor=none;startFill=0;startSize=8;endArrow=open;endFill=0;endSize=16;fontFamily=Verdana;fontSize=12;dashed=1;exitX=0.994;exitY=0.058;exitDx=0;exitDy=0;exitPerimeter=0;entryX=-0.019;entryY=0.192;entryDx=0;entryDy=0;entryPerimeter=0;" parent="1" source="Z24ObllgmWdgaAB6FL8y-54" target="Z24ObllgmWdgaAB6FL8y-50" edge="1">
                    <mxGeometry relative="1" as="geometry">
                        <Array as="points">
                            <mxPoint x="109" y="-282"/>
                            <mxPoint x="190" y="-282"/>
                            <mxPoint x="190" y="-423"/>
                        </Array>
                        <mxPoint x="200" y="-282" as="sourcePoint"/>
                        <mxPoint x="260" y="-320" as="targetPoint"/>
                    </mxGeometry>
                </mxCell>
            </root>
        </mxGraphModel>
    </diagram>
</mxfile>